<svg xmlns="http://www.w3.org/2000/svg" viewBox="0 0 64 64" role="img" aria-label="AnvilPilot enchanted forge mark">
  <rect width="64" height="64" rx="12" fill="#07131f"/>
  <path d="M8 19 32 6l24 13v26L32 58 8 45Z" fill="#0d2635" stroke="#36d7d9" stroke-width="3" stroke-linejoin="round"/>
  <path d="M9.5 19 32 7l22.5 12L32 31Z" fill="#8b5cf6"/>
  <path d="M9.5 19 32 31v25L9.5 44Z" fill="#0a1b29"/>
  <path d="M54.5 19 32 31v25l22.5-12Z" fill="#102d3c"/>
  <path d="M14 18h36v9l-8 6h-5v8h9v7H18v-7h9v-8h-5l-8-6Z" fill="#07131f" stroke="#36d7d9" stroke-width="2" stroke-linejoin="round"/>
  <path d="m32 19 7 10-5 5v9l-2 4-2-4v-9l-5-5Z" fill="#9fe870"/>
  <path d="m32 19 3.5 10L32 34l-3.5-5Z" fill="#d9ffad"/>
  <path d="m32 3 4 4-4 4-4-4Zm-25 12 4 4-4 4-4-4Zm50 0 4 4-4 4-4-4Zm-25 38 4 4-4 4-4-4Z" fill="#f4b84a"/>
</svg>
